# File created by Blade
# Date/Time:  Fri Jan 16 19:00:24 2015
# Frame Rate: 120.000 fps
#------------------------------------------------------
:FULLY-SPECIFIED
:DEGREES
3378
root 17.159453 36.386904 -22.283881 -179.371964 19.020044 -162.824998
Spine 9.821156 6.738271 21.719608
Head 8.620766 6.613631 -10.930748
LeftShoulder -16.311063 -32.430383 6.548405
LeftArm -8.594991 -7.398919 -9.593728
LeftForeArm -0.961184 0.000000 6.158341
LeftHand -2.063432 -0.000000 5.176042
LeftHandThumb1 -26.253704 0.000000 33.147579
RightShoulder -6.769730 -3.819289 -6.497131
RightArm 4.260624 46.763644 37.335651
RightForeArm -19.154424 0.000000 13.952970
RightHand -10.273779 -0.000000 -7.581561
RightHandThumb1 -24.326973 -0.000000 -32.862282
LeftUpLeg 8.910675 19.938662 6.787584
LeftLeg -4.274471 -0.000000 0.000000
LeftFoot -21.848398 33.299974 -6.956296
LeftToeBase 19.407180 -0.000000 -0.000000
RightUpLeg -107.393726 -30.663947 21.979259
RightLeg 117.409558 -0.000000 -0.000000
RightFoot 37.073962 -38.889479 -19.339167
RightToeBase 20.792885 -0.000000 -0.000000
3379
root 17.163325 36.380282 -22.256365 -179.370517 18.704402 -162.975162
Spine 9.753295 6.519569 21.591223
Head 8.502128 6.599101 -10.797359
LeftShoulder -16.200266 -32.452345 6.519434
LeftArm -8.568877 -7.362339 -9.619980
LeftForeArm -0.963401 -0.000000 6.093369
LeftHand -2.097220 -0.000000 5.170286
LeftHandThumb1 -26.253704 0.000000 33.147579
RightShoulder -6.824670 -3.794023 -6.352246
RightArm 4.183560 46.962027 37.383845
RightForeArm -19.020464 -0.000000 14.195029
RightHand -10.358339 -0.000000 -7.693453
RightHandThumb1 -24.326973 -0.000000 -32.862282
LeftUpLeg 8.682558 19.933093 6.628616
LeftLeg -4.163601 -0.000000 0.000000
LeftFoot -21.840507 33.106846 -6.760081
LeftToeBase 19.252416 -0.000000 -0.000000
RightUpLeg -107.294387 -30.685474 21.805074
RightLeg 117.681408 -0.000000 -0.000000
RightFoot 37.220315 -38.667009 -19.331564
RightToeBase 20.914522 -0.000000 -0.000000
3380
root 17.165066 36.375907 -22.231403 -179.406249 18.367283 -163.095184
Spine 9.737673 6.257346 21.512096
Head 8.372484 6.531743 -10.677616
LeftShoulder -16.116423 -32.442954 6.484236
LeftArm -8.523240 -7.424393 -9.677691
LeftForeArm -0.983327 -0.000000 6.039273
LeftHand -2.113841 -0.000000 5.206915
LeftHandThumb1 -26.253704 0.000000 33.147579
RightShoulder -6.852296 -3.691074 -6.260787
RightArm 4.008110 47.204662 37.422901
RightForeArm -18.977417 -0.000000 14.477820
RightHand -10.366248 -0.000000 -7.781570
RightHandThumb1 -24.326973 -0.000000 -32.862282
LeftUpLeg 8.520902 19.890407 6.512062
LeftLeg -4.086557 -0.000000 0.000000
LeftFoot -21.810778 32.907952 -6.590994
LeftToeBase 19.035568 -0.000000 -0.000000
RightUpLeg -107.000479 -30.794627 21.626061
RightLeg 117.884773 -0.000000 -0.000000
RightFoot 37.312809 -38.379837 -19.498433
RightToeBase 21.684767 -0.000000 -0.000000
3381
root 17.165726 36.370220 -22.200160 -179.410648 18.030131 -163.263666
Spine 9.674385 6.049186 21.341861
Head 8.243580 6.427667 -10.481040
LeftShoulder -16.035034 -32.387431 6.484081
LeftArm -8.416437 -7.578585 -9.775283
LeftForeArm -1.005551 0.000000 5.959100
LeftHand -2.064055 -0.000000 5.222246
LeftHandThumb1 -26.253704 0.000000 33.147579
RightShoulder -6.877609 -3.557520 -6.081053
RightArm 3.720339 47.480317 37.342261
RightForeArm -19.122912 -0.000000 14.833466
RightHand -10.548456 -0.000000 -7.795694
RightHandThumb1 -24.326973 -0.000000 -32.862282
LeftUpLeg 8.284107 19.834709 6.328687
LeftLeg -3.975901 -0.000000 0.000000
LeftFoot -21.799650 32.705412 -6.432393
LeftToeBase 18.925861 -0.000000 -0.000000
RightUpLeg -106.674441 -30.913822 21.475731
RightLeg 117.993458 -0.000000 -0.000000
RightFoot 37.353413 -38.314256 -19.482996
RightToeBase 21.825079 -0.000000 -0.000000
3382
root 17.164203 36.361151 -22.173283 -179.434601 17.695987 -163.467825
Spine 9.619685 5.861191 21.137244
Head 8.120643 6.338951 -10.272348
LeftShoulder -15.915646 -32.461642 6.517336
LeftArm -8.398018 -7.576854 -9.845933
LeftForeArm -1.035248 0.000000 5.911123
LeftHand -1.977257 -0.000000 5.198224
LeftHandThumb1 -26.253704 0.000000 33.147579
RightShoulder -6.940922 -3.467326 -5.917700
RightArm 3.454636 47.680661 37.338943
RightForeArm -19.237369 -0.000000 15.265257
RightHand -10.738860 0.000000 -7.746818
RightHandThumb1 -24.326973 -0.000000 -32.862282
LeftUpLeg 8.082808 19.768682 6.111233
LeftLeg -3.898912 -0.000000 0.000000
LeftFoot -21.763778 32.523686 -6.279873
LeftToeBase 18.812025 -0.000000 -0.000000
RightUpLeg -106.213788 -31.062685 21.258084
RightLeg 118.027752 -0.000000 -0.000000
RightFoot 37.311128 -38.405987 -19.227562
RightToeBase 20.860980 -0.000000 -0.000000
3383
root 17.158997 36.352716 -22.149976 -179.450977 17.375798 -163.662529
Spine 9.551036 5.699932 20.943133
Head 8.023101 6.239122 -10.013775
LeftShoulder -15.832510 -32.403651 6.576611
LeftArm -8.330656 -7.715226 -10.009648
LeftForeArm -1.032832 -0.000000 5.909195
LeftHand -1.993752 -0.000000 5.170236
LeftHandThumb1 -26.253704 0.000000 33.147579
RightShoulder -7.010412 -3.428089 -5.781364
RightArm 3.264300 47.836137 37.436047
RightForeArm -19.170412 -0.000000 15.600102
RightHand -10.650017 -0.000000 -7.982003
RightHandThumb1 -24.326973 -0.000000 -32.862282
LeftUpLeg 7.891385 19.695081 5.896390
LeftLeg -3.831548 -0.000000 0.000000
LeftFoot -21.738372 32.351641 -6.166975
LeftToeBase 18.648980 -0.000000 -0.000000
RightUpLeg -105.623535 -31.232643 21.027478
RightLeg 117.984875 -0.000000 -0.000000
RightFoot 37.293440 -38.469543 -19.237846
RightToeBase 21.102365 -0.000000 -0.000000
3384
root 17.152027 36.342443 -22.123691 -179.469963 17.063089 -163.880250
Spine 9.488398 5.561435 20.715841
Head 7.911266 6.111521 -9.754676
LeftShoulder -15.717150 -32.366193 6.633306
LeftArm -8.268931 -7.837697 -10.157474
LeftForeArm -0.973149 0.000000 5.872534
LeftHand -2.010757 -0.000000 5.059891
LeftHandThumb1 -26.253704 0.000000 33.147579
RightShoulder -7.082088 -3.471176 -5.610671
RightArm 3.099262 47.988409 37.536843
RightForeArm -19.174816 -0.000000 15.991067
RightHand -10.732160 -0.000000 -8.077450
RightHandThumb1 -24.326973 -0.000000 -32.862282
LeftUpLeg 7.689147 19.565718 5.650641
LeftLeg -3.753734 -0.000000 0.000000
LeftFoot -21.706958 32.214019 -6.068132
LeftToeBase 18.491691 -0.000000 -0.000000
RightUpLeg -104.916141 -31.418331 20.735430
RightLeg 117.867471 -0.000000 -0.000000
RightFoot 37.366674 -38.460670 -19.294330
RightToeBase 20.734465 -0.000000 -0.000000
3385
root 17.145887 36.328603 -22.101526 -179.507244 16.786691 -164.129922
Spine 9.443854 5.487030 20.430084
Head 7.814264 5.981006 -9.418508
LeftShoulder -15.591862 -32.365172 6.754154
LeftArm -8.228729 -7.905879 -10.341778
LeftForeArm -0.973818 -0.000000 5.867616
LeftHand -2.047018 -0.000000 5.007987
LeftHandThumb1 -26.253704 0.000000 33.147579
RightShoulder -7.227897 -3.527977 -5.403387
RightArm 3.035029 48.155335 37.710952
RightForeArm -19.370871 -0.000000 16.355689
RightHand -10.852175 -0.000000 -8.095425
RightHandThumb1 -24.326973 -0.000000 -32.862282
LeftUpLeg 7.528120 19.434114 5.378612
LeftLeg -3.710085 -0.000000 0.000000
LeftFoot -21.682922 32.116403 -5.985053
LeftToeBase 18.432031 -0.000000 -0.000000
RightUpLeg -104.091721 -31.598954 20.372276
RightLeg 117.695904 -0.000000 -0.000000
RightFoot 37.294420 -38.520199 -19.179414
RightToeBase 20.939859 -0.000000 -0.000000
3386
root 17.140953 36.314481 -22.068371 -179.479479 16.508990 -164.387420
Spine 9.321744 5.417979 20.106477
Head 7.765671 5.817344 -9.035576
LeftShoulder -15.467171 -32.244439 6.830494
LeftArm -8.083880 -8.060172 -10.501617
LeftForeArm -0.948581 -0.000000 5.754893
LeftHand -2.013851 -0.000000 4.954296
LeftHandThumb1 -26.253704 0.000000 33.147579
RightShoulder -7.281947 -3.527691 -5.193319
RightArm 2.804612 48.284538 37.791165
RightForeArm -19.593055 0.000000 16.717245
RightHand -10.928345 -0.000000 -8.186144
RightHandThumb1 -24.326973 -0.000000 -32.862282
LeftUpLeg 7.259449 19.246049 5.077648
LeftLeg -3.619165 -0.000000 0.000000
LeftFoot -21.629560 32.072370 -5.849165
LeftToeBase 18.364964 -0.000000 -0.000000
RightUpLeg -103.210579 -31.729760 19.982909
RightLeg 117.469408 -0.000000 -0.000000
RightFoot 37.328728 -38.338220 -19.241190
RightToeBase 20.666996 -0.000000 -0.000000
3387
root 17.140792 36.303749 -22.023600 -179.332870 16.254560 -164.558073
Spine 9.129122 5.442355 19.863919
Head 7.706342 5.636212 -8.664545
LeftShoulder -15.318306 -32.178100 6.903846
LeftArm -7.949101 -8.057975 -10.678065
LeftForeArm -1.024594 -0.000000 5.669958
LeftHand -1.981017 -0.000000 4.884789
LeftHandThumb1 -26.253704 0.000000 33.147579
RightShoulder -7.403774 -3.515578 -4.967153
RightArm 2.614431 48.312052 37.859470
RightForeArm -19.762633 0.000000 17.014370
RightHand -10.896550 -0.000000 -8.174567
RightHandThumb1 -24.326973 -0.000000 -32.862282
LeftUpLeg 6.865775 19.087126 4.843667
LeftLeg -3.492466 -0.000000 0.000000
LeftFoot -21.576674 32.025095 -5.650263
LeftToeBase 18.401863 -0.000000 -0.000000
RightUpLeg -102.336929 -31.825164 19.756558
RightLeg 117.096714 -0.000000 -0.000000
RightFoot 37.338545 -38.420337 -19.225464
RightToeBase 20.660511 -0.000000 -0.000000
